{
    "asset" : {
        "generator" : "Khronos glTF Blender I/O v1.0.5",
        "version" : "2.0"
    },
    "scene" : 0,
    "scenes" : [
        {
            "name" : "Scene",
            "nodes" : [
                0,
                1,
                2,
                3,
                4,
                5,
                6,
                7,
                8,
                9,
                10,
                11,
                12
            ]
        }
    ],
    "nodes" : [
        {
            "name" : "Light",
            "rotation" : [
                0.16907575726509094,
                0.7558803558349609,
                -0.27217137813568115,
                0.570947527885437
            ],
            "scale" : [
                0.5662122964859009,
                0.5662123560905457,
                0.5662123560905457
            ],
            "translation" : [
                2.084604263305664,
                3.0186448097229004,
                -1.5364220142364502
            ]
        },
        {
            "name" : "Camera",
            "rotation" : [
                0.483536034822464,
                0.33687159419059753,
                -0.20870360732078552,
                0.7804827094078064
            ],
            "scale" : [
                0.5662122964859009,
                0.5662123560905457,
                0.5662123560905457
            ],
            "translation" : [
                3.9432790279388428,
                2.4832615852355957,
                2.9543466567993164
            ]
        },
        {
            "name" : "Mball",
            "scale" : [
                2.090254068374634,
                2.090254068374634,
                -2.0931756496429443
            ],
            "translation" : [
                -0.07816725969314575,
                1.7046133279800415,
                0.05061697959899902
            ]
        },
        {
            "name" : "Mball.001",
            "rotation" : [
                -0.010411839000880718,
                0.01658071205019951,
                -0.7206602692604065,
                0.6930118799209595
            ],
            "scale" : [
                -2.9339988231658936,
                2.128715753555298,
                2.1890318393707275
            ],
            "translation" : [
                -0.14988046884536743,
                -0.30891406536102295,
                -2.680934190750122
            ]
        },
        {
            "name" : "Mball.002",
            "scale" : [
                0.9052445888519287,
                0.9052445888519287,
                0.9052445888519287
            ],
            "translation" : [
                -0.12543493509292603,
                0.5813751220703125,
                2.038379669189453
            ]
        },
        {
            "mesh" : 0,
            "name" : "Torus.001",
            "rotation" : [
                0.09482786059379578,
                0.09435019642114639,
                -0.6999810934066772,
                0.7015213370323181
            ],
            "scale" : [
                1.9917306900024414,
                1.9917303323745728,
                1.9917314052581787
            ],
            "translation" : [
                -0.007696866989135742,
                2.3010191917419434,
                -1.166567087173462
            ]
        },
        {
            "mesh" : 1,
            "name" : "Sphere",
            "scale" : [
                1.5467925071716309,
                1.5467925071716309,
                1.5467925071716309
            ],
            "translation" : [
                -0.06533408164978027,
                0.036336541175842285,
                -4.046654224395752
            ]
        },
        {
            "mesh" : 2,
            "name" : "Torus.003",
            "rotation" : [
                -0.9187246561050415,
                0.0069229938089847565,
                0.3948170840740204,
                -0.004064064007252455
            ],
            "scale" : [
                1.1768311262130737,
                1.5341492891311646,
                1.1768314838409424
            ],
            "translation" : [
                -1.4196531772613525,
                0.24892842769622803,
                -3.053956985473633
            ]
        },
        {
            "mesh" : 3,
            "name" : "Torus.002",
            "rotation" : [
                -0.9178947806358337,
                0.010460727848112583,
                0.39658215641975403,
                0.009075328707695007
            ],
            "scale" : [
                1.1768313646316528,
                1.5341488122940063,
                1.1768313646316528
            ],
            "translation" : [
                1.0296728610992432,
                0.17047464847564697,
                -3.171192169189453
            ]
        },
        {
            "mesh" : 4,
            "name" : "Sphere.001",
            "scale" : [
                0.7180995941162109,
                0.7668213248252869,
                0.4670850932598114
            ],
            "translation" : [
                -0.01619112491607666,
                0.036336541175842285,
                -5.415006160736084
            ]
        },
        {
            "mesh" : 5,
            "name" : "Sphere.002",
            "scale" : [
                0.8775925636291504,
                0.8775925636291504,
                0.8775925636291504
            ],
            "translation" : [
                -0.11089909076690674,
                -2.4435415267944336,
                -4.191101551055908
            ]
        },
        {
            "mesh" : 6,
            "name" : "Cone",
            "rotation" : [
                -0.38950419425964355,
                0.2658925950527191,
                -0.14382506906986237,
                0.8700011372566223
            ],
            "scale" : [
                1.092160940170288,
                1.0921610593795776,
                1.0921611785888672
            ],
            "translation" : [
                -0.015985608100891113,
                2.877612590789795,
                -4.087033748626709
            ]
        },
        {
            "mesh" : 7,
            "name" : "Sphere.003",
            "rotation" : [
                -0.2213747203350067,
                -0.021601706743240356,
                -0.08368349075317383,
                0.9713514447212219
            ],
            "scale" : [
                0.6265284419059753,
                0.6690374612808228,
                0.40752309560775757
            ],
            "translation" : [
                -0.1092957854270935,
                -2.633380889892578,
                -4.677735328674316
            ]
        }
    ],
    "materials" : [
        {
            "doubleSided" : true,
            "name" : "Material.006",
            "pbrMetallicRoughness" : {
                "baseColorFactor" : [
                    0.3908371925354004,
                    0.39311495423316956,
                    0.21260811388492584,
                    1
                ],
                "metallicFactor" : 0,
                "roughnessFactor" : 0.5
            }
        },
        {
            "doubleSided" : true,
            "name" : "Material.002",
            "pbrMetallicRoughness" : {
                "baseColorFactor" : [
                    0.9334996342658997,
                    0.9702202081680298,
                    0.9999861121177673,
                    1
                ],
                "metallicFactor" : 0,
                "roughnessFactor" : 0.5
            }
        },
        {
            "doubleSided" : true,
            "name" : "Material.007",
            "pbrMetallicRoughness" : {
                "baseColorFactor" : [
                    0.34238407015800476,
                    0.34238407015800476,
                    0.1633060723543167,
                    1
                ],
                "metallicFactor" : 0,
                "roughnessFactor" : 0.5
            }
        },
        {
            "doubleSided" : true,
            "name" : "Material.008",
            "pbrMetallicRoughness" : {
                "baseColorFactor" : [
                    0.32637616991996765,
                    0.32637616991996765,
                    0.13931719958782196,
                    1
                ],
                "metallicFactor" : 0,
                "roughnessFactor" : 0.5
            }
        },
        {
            "doubleSided" : true,
            "name" : "Material.004",
            "pbrMetallicRoughness" : {
                "baseColorFactor" : [
                    0.8000000715255737,
                    0.007783728651702404,
                    0.009419599547982216,
                    1
                ],
                "metallicFactor" : 0,
                "roughnessFactor" : 0.5
            }
        },
        {
            "doubleSided" : true,
            "name" : "Material.003",
            "pbrMetallicRoughness" : {
                "baseColorFactor" : [
                    0.7760764956474304,
                    0.8000000715255737,
                    0.8000000715255737,
                    1
                ],
                "metallicFactor" : 0,
                "roughnessFactor" : 0.5
            }
        },
        {
            "doubleSided" : true,
            "name" : "Material.009",
            "pbrMetallicRoughness" : {
                "baseColorFactor" : [
                    0.8000000715255737,
                    0.6019735336303711,
                    0.019499890506267548,
                    1
                ],
                "metallicFactor" : 0,
                "roughnessFactor" : 0.5
            }
        },
        {
            "doubleSided" : true,
            "name" : "Material.005",
            "pbrMetallicRoughness" : {
                "baseColorFactor" : [
                    0.6151782274246216,
                    0.01390544231981039,
                    0.01390544231981039,
                    1
                ],
                "metallicFactor" : 0,
                "roughnessFactor" : 0.5
            }
        }
    ],
    "meshes" : [
        {
            "name" : "Torus.001",
            "primitives" : [
                {
                    "attributes" : {
                        "POSITION" : 0,
                        "NORMAL" : 1,
                        "TEXCOORD_0" : 2
                    },
                    "indices" : 3,
                    "material" : 0
                }
            ]
        },
        {
            "name" : "Sphere",
            "primitives" : [
                {
                    "attributes" : {
                        "POSITION" : 4,
                        "NORMAL" : 5,
                        "TEXCOORD_0" : 6
                    },
                    "indices" : 7,
                    "material" : 1
                }
            ]
        },
        {
            "name" : "Torus.003",
            "primitives" : [
                {
                    "attributes" : {
                        "POSITION" : 8,
                        "NORMAL" : 9,
                        "TEXCOORD_0" : 10
                    },
                    "indices" : 3,
                    "material" : 2
                }
            ]
        },
        {
            "name" : "Torus.004",
            "primitives" : [
                {
                    "attributes" : {
                        "POSITION" : 11,
                        "NORMAL" : 12,
                        "TEXCOORD_0" : 13
                    },
                    "indices" : 3,
                    "material" : 3
                }
            ]
        },
        {
            "name" : "Sphere.001",
            "primitives" : [
                {
                    "attributes" : {
                        "POSITION" : 14,
                        "NORMAL" : 15,
                        "TEXCOORD_0" : 16
                    },
                    "indices" : 7,
                    "material" : 4
                }
            ]
        },
        {
            "name" : "Sphere.002",
            "primitives" : [
                {
                    "attributes" : {
                        "POSITION" : 17,
                        "NORMAL" : 18,
                        "TEXCOORD_0" : 19
                    },
                    "indices" : 7,
                    "material" : 5
                }
            ]
        },
        {
            "name" : "Cone.001",
            "primitives" : [
                {
                    "attributes" : {
                        "POSITION" : 20,
                        "NORMAL" : 21,
                        "TEXCOORD_0" : 22
                    },
                    "indices" : 23,
                    "material" : 6
                }
            ]
        },
        {
            "name" : "Sphere.003",
            "primitives" : [
                {
                    "attributes" : {
                        "POSITION" : 24,
                        "NORMAL" : 25,
                        "TEXCOORD_0" : 26
                    },
                    "indices" : 7,
                    "material" : 7
                }
            ]
        }
    ],
    "accessors" : [
        {
            "bufferView" : 0,
            "componentType" : 5126,
            "count" : 637,
            "max" : [
                1.25,
                0.25,
                1.25
            ],
            "min" : [
                -1.25,
                -0.25,
                -1.25
            ],
            "type" : "VEC3"
        },
        {
            "bufferView" : 1,
            "componentType" : 5126,
            "count" : 637,
            "type" : "VEC3"
        },
        {
            "bufferView" : 2,
            "componentType" : 5126,
            "count" : 637,
            "type" : "VEC2"
        },
        {
            "bufferView" : 3,
            "componentType" : 5123,
            "count" : 3456,
            "type" : "SCALAR"
        },
        {
            "bufferView" : 4,
            "componentType" : 5126,
            "count" : 559,
            "max" : [
                1.000000238418579,
                1,
                1.0000003576278687
            ],
            "min" : [
                -0.9999998211860657,
                -1,
                -1
            ],
            "type" : "VEC3"
        },
        {
            "bufferView" : 5,
            "componentType" : 5126,
            "count" : 559,
            "type" : "VEC3"
        },
        {
            "bufferView" : 6,
            "componentType" : 5126,
            "count" : 559,
            "type" : "VEC2"
        },
        {
            "bufferView" : 7,
            "componentType" : 5123,
            "count" : 2880,
            "type" : "SCALAR"
        },
        {
            "bufferView" : 8,
            "componentType" : 5126,
            "count" : 637,
            "max" : [
                1.25,
                0.25,
                1.25
            ],
            "min" : [
                -1.25,
                -0.25,
                -1.25
            ],
            "type" : "VEC3"
        },
        {
            "bufferView" : 9,
            "componentType" : 5126,
            "count" : 637,
            "type" : "VEC3"
        },
        {
            "bufferView" : 10,
            "componentType" : 5126,
            "count" : 637,
            "type" : "VEC2"
        },
        {
            "bufferView" : 11,
            "componentType" : 5126,
            "count" : 637,
            "max" : [
                1.25,
                0.25,
                1.25
            ],
            "min" : [
                -1.25,
                -0.25,
                -1.25
            ],
            "type" : "VEC3"
        },
        {
            "bufferView" : 12,
            "componentType" : 5126,
            "count" : 637,
            "type" : "VEC3"
        },
        {
            "bufferView" : 13,
            "componentType" : 5126,
            "count" : 637,
            "type" : "VEC2"
        },
        {
            "bufferView" : 14,
            "componentType" : 5126,
            "count" : 559,
            "max" : [
                1.000000238418579,
                1,
                1.0000003576278687
            ],
            "min" : [
                -0.9999998211860657,
                -1,
                -1
            ],
            "type" : "VEC3"
        },
        {
            "bufferView" : 15,
            "componentType" : 5126,
            "count" : 559,
            "type" : "VEC3"
        },
        {
            "bufferView" : 16,
            "componentType" : 5126,
            "count" : 559,
            "type" : "VEC2"
        },
        {
            "bufferView" : 17,
            "componentType" : 5126,
            "count" : 559,
            "max" : [
                1.000000238418579,
                1,
                1.0000003576278687
            ],
            "min" : [
                -0.9999998211860657,
                -1,
                -1
            ],
            "type" : "VEC3"
        },
        {
            "bufferView" : 18,
            "componentType" : 5126,
            "count" : 559,
            "type" : "VEC3"
        },
        {
            "bufferView" : 19,
            "componentType" : 5126,
            "count" : 559,
            "type" : "VEC2"
        },
        {
            "bufferView" : 20,
            "componentType" : 5126,
            "count" : 65,
            "max" : [
                1,
                3.5944290161132812,
                1
            ],
            "min" : [
                -1,
                -1,
                -1.2318096160888672
            ],
            "type" : "VEC3"
        },
        {
            "bufferView" : 21,
            "componentType" : 5126,
            "count" : 65,
            "type" : "VEC3"
        },
        {
            "bufferView" : 22,
            "componentType" : 5126,
            "count" : 65,
            "type" : "VEC2"
        },
        {
            "bufferView" : 23,
            "componentType" : 5123,
            "count" : 186,
            "type" : "SCALAR"
        },
        {
            "bufferView" : 24,
            "componentType" : 5126,
            "count" : 559,
            "max" : [
                1.000000238418579,
                1,
                1.0000003576278687
            ],
            "min" : [
                -0.9999998211860657,
                -1,
                -1
            ],
            "type" : "VEC3"
        },
        {
            "bufferView" : 25,
            "componentType" : 5126,
            "count" : 559,
            "type" : "VEC3"
        },
        {
            "bufferView" : 26,
            "componentType" : 5126,
            "count" : 559,
            "type" : "VEC2"
        }
    ],
    "bufferViews" : [
        {
            "buffer" : 0,
            "byteLength" : 7644,
            "byteOffset" : 0
        },
        {
            "buffer" : 0,
            "byteLength" : 7644,
            "byteOffset" : 7644
        },
        {
            "buffer" : 0,
            "byteLength" : 5096,
            "byteOffset" : 15288
        },
        {
            "buffer" : 0,
            "byteLength" : 6912,
            "byteOffset" : 20384
        },
        {
            "buffer" : 0,
            "byteLength" : 6708,
            "byteOffset" : 27296
        },
        {
            "buffer" : 0,
            "byteLength" : 6708,
            "byteOffset" : 34004
        },
        {
            "buffer" : 0,
            "byteLength" : 4472,
            "byteOffset" : 40712
        },
        {
            "buffer" : 0,
            "byteLength" : 5760,
            "byteOffset" : 45184
        },
        {
            "buffer" : 0,
            "byteLength" : 7644,
            "byteOffset" : 50944
        },
        {
            "buffer" : 0,
            "byteLength" : 7644,
            "byteOffset" : 58588
        },
        {
            "buffer" : 0,
            "byteLength" : 5096,
            "byteOffset" : 66232
        },
        {
            "buffer" : 0,
            "byteLength" : 7644,
            "byteOffset" : 71328
        },
        {
            "buffer" : 0,
            "byteLength" : 7644,
            "byteOffset" : 78972
        },
        {
            "buffer" : 0,
            "byteLength" : 5096,
            "byteOffset" : 86616
        },
        {
            "buffer" : 0,
            "byteLength" : 6708,
            "byteOffset" : 91712
        },
        {
            "buffer" : 0,
            "byteLength" : 6708,
            "byteOffset" : 98420
        },
        {
            "buffer" : 0,
            "byteLength" : 4472,
            "byteOffset" : 105128
        },
        {
            "buffer" : 0,
            "byteLength" : 6708,
            "byteOffset" : 109600
        },
        {
            "buffer" : 0,
            "byteLength" : 6708,
            "byteOffset" : 116308
        },
        {
            "buffer" : 0,
            "byteLength" : 4472,
            "byteOffset" : 123016
        },
        {
            "buffer" : 0,
            "byteLength" : 780,
            "byteOffset" : 127488
        },
        {
            "buffer" : 0,
            "byteLength" : 780,
            "byteOffset" : 128268
        },
        {
            "buffer" : 0,
            "byteLength" : 520,
            "byteOffset" : 129048
        },
        {
            "buffer" : 0,
            "byteLength" : 372,
            "byteOffset" : 129568
        },
        {
            "buffer" : 0,
            "byteLength" : 6708,
            "byteOffset" : 129940
        },
        {
            "buffer" : 0,
            "byteLength" : 6708,
            "byteOffset" : 136648
        },
        {
            "buffer" : 0,
            "byteLength" : 4472,
            "byteOffset" : 143356
        }
    ],
    "buffers" : [
        {
            "byteLength" : 147828,
            "uri" : "data:application/octet-stream;base64,"
        }
    ]
}
