{
    "asset" : {
        "generator" : "Khronos glTF Blender I/O v1.0.5",
        "version" : "2.0"
    },
    "scene" : 0,
    "scenes" : [
        {
            "name" : "Scene",
            "nodes" : [
                0,
                1,
                2,
                3,
                4,
                5,
                6,
                7,
                8
            ]
        }
    ],
    "nodes" : [
        {
            "name" : "Light",
            "rotation" : [
                0.16907575726509094,
                0.7558803558349609,
                -0.27217137813568115,
                0.570947527885437
            ],
            "scale" : [
                0.5952501893043518,
                0.595250129699707,
                0.5952502489089966
            ],
            "translation" : [
                2.0499267578125,
                4.428378105163574,
                -0.32251590490341187
            ]
        },
        {
            "name" : "Camera",
            "rotation" : [
                0.483536034822464,
                0.33687159419059753,
                -0.20870360732078552,
                0.7804827094078064
            ],
            "scale" : [
                0.5952502489089966,
                0.5952502489089966,
                0.5952502489089966
            ],
            "translation" : [
                4.003921985626221,
                3.865537166595459,
                4.398558616638184
            ]
        },
        {
            "mesh" : 0,
            "name" : "Cone",
            "rotation" : [
                -0.0020127359312027693,
                0.0010420088656246662,
                -9.407426841789857e-05,
                0.9999974370002747
            ],
            "scale" : [
                3.771735668182373,
                2.3525118827819824,
                3.9205214977264404
            ],
            "translation" : [
                -0.3764590919017792,
                6.021432876586914,
                0.27598074078559875
            ]
        },
        {
            "mesh" : 1,
            "name" : "Cone.001",
            "rotation" : [
                0.9999856352806091,
                0.0014797039330005646,
                -0.004912707023322582,
                0.001560659846290946
            ],
            "scale" : [
                3.7749507427215576,
                2.335735321044922,
                3.8795204162597656
            ],
            "translation" : [
                -0.38292428851127625,
                -2.7668938636779785,
                0.30771827697753906
            ]
        },
        {
            "mesh" : 2,
            "name" : "Sphere",
            "scale" : [
                1.9058297872543335,
                1.9058297872543335,
                1.9058297872543335
            ],
            "translation" : [
                -0.3562861382961273,
                1.6734154224395752,
                0.32923683524131775
            ]
        },
        {
            "mesh" : 3,
            "name" : "Torus.003",
            "scale" : [
                3.6822381019592285,
                1.100266933441162,
                3.6822381019592285
            ],
            "translation" : [
                -0.3764590919017792,
                5.504874229431152,
                0.27598074078559875
            ]
        },
        {
            "mesh" : 4,
            "name" : "Torus.000",
            "scale" : [
                3.6822381019592285,
                1.100266933441162,
                3.6822381019592285
            ],
            "translation" : [
                -0.36065205931663513,
                -1.943953514099121,
                0.22986173629760742
            ]
        },
        {
            "name" : "Mball",
            "scale" : [
                0.5952501893043518,
                0.5952501893043518,
                0.5952501893043518
            ],
            "translation" : [
                -0.3764590919017792,
                5.519623756408691,
                5.52006196975708
            ]
        },
        {
            "name" : "Mball.001",
            "scale" : [
                0.5952501893043518,
                0.5952501893043518,
                0.5952501893043518
            ],
            "translation" : [
                -0.3835255205631256,
                -1.9764628410339355,
                -4.878187656402588
            ]
        }
    ],
    "materials" : [
        {
            "doubleSided" : true,
            "name" : "Material.001",
            "pbrMetallicRoughness" : {
                "baseColorFactor" : [
                    0.1397557109594345,
                    0.08020754158496857,
                    0.8000000715255737,
                    1
                ],
                "metallicFactor" : 0,
                "roughnessFactor" : 0.5
            }
        },
        {
            "doubleSided" : true,
            "name" : "Material.002",
            "pbrMetallicRoughness" : {
                "baseColorFactor" : [
                    0.18074116110801697,
                    0.13071942329406738,
                    0.8000000715255737,
                    1
                ],
                "metallicFactor" : 0,
                "roughnessFactor" : 0.5
            }
        },
        {
            "doubleSided" : true,
            "name" : "Material.003",
            "pbrMetallicRoughness" : {
                "baseColorFactor" : [
                    0.8000000715255737,
                    0.047535963356494904,
                    0.016813429072499275,
                    1
                ],
                "metallicFactor" : 0,
                "roughnessFactor" : 0.5
            }
        },
        {
            "doubleSided" : true,
            "name" : "Material.004",
            "pbrMetallicRoughness" : {
                "baseColorFactor" : [
                    0.30054378509521484,
                    0.44520121812820435,
                    0.28314879536628723,
                    1
                ],
                "metallicFactor" : 0,
                "roughnessFactor" : 0.5
            }
        },
        {
            "doubleSided" : true,
            "name" : "Material.005",
            "pbrMetallicRoughness" : {
                "baseColorFactor" : [
                    0.29613831639289856,
                    0.5840784907341003,
                    0.2015562802553177,
                    1
                ],
                "metallicFactor" : 0,
                "roughnessFactor" : 0.5
            }
        }
    ],
    "meshes" : [
        {
            "name" : "Cone",
            "primitives" : [
                {
                    "attributes" : {
                        "POSITION" : 0,
                        "NORMAL" : 1,
                        "TEXCOORD_0" : 2
                    },
                    "indices" : 3,
                    "material" : 0
                }
            ]
        },
        {
            "name" : "Cone.001",
            "primitives" : [
                {
                    "attributes" : {
                        "POSITION" : 4,
                        "NORMAL" : 5,
                        "TEXCOORD_0" : 6
                    },
                    "indices" : 3,
                    "material" : 1
                }
            ]
        },
        {
            "name" : "Sphere",
            "primitives" : [
                {
                    "attributes" : {
                        "POSITION" : 7,
                        "NORMAL" : 8,
                        "TEXCOORD_0" : 9
                    },
                    "indices" : 10,
                    "material" : 2
                }
            ]
        },
        {
            "name" : "Torus.003",
            "primitives" : [
                {
                    "attributes" : {
                        "POSITION" : 11,
                        "NORMAL" : 12,
                        "TEXCOORD_0" : 13
                    },
                    "indices" : 14,
                    "material" : 3
                }
            ]
        },
        {
            "name" : "Torus.004",
            "primitives" : [
                {
                    "attributes" : {
                        "POSITION" : 15,
                        "NORMAL" : 16,
                        "TEXCOORD_0" : 17
                    },
                    "indices" : 14,
                    "material" : 4
                }
            ]
        }
    ],
    "accessors" : [
        {
            "bufferView" : 0,
            "componentType" : 5126,
            "count" : 128,
            "max" : [
                1,
                1,
                1
            ],
            "min" : [
                -1,
                -1,
                -1
            ],
            "type" : "VEC3"
        },
        {
            "bufferView" : 1,
            "componentType" : 5126,
            "count" : 128,
            "type" : "VEC3"
        },
        {
            "bufferView" : 2,
            "componentType" : 5126,
            "count" : 128,
            "type" : "VEC2"
        },
        {
            "bufferView" : 3,
            "componentType" : 5123,
            "count" : 186,
            "type" : "SCALAR"
        },
        {
            "bufferView" : 4,
            "componentType" : 5126,
            "count" : 128,
            "max" : [
                1,
                1,
                1
            ],
            "min" : [
                -1,
                -1,
                -1
            ],
            "type" : "VEC3"
        },
        {
            "bufferView" : 5,
            "componentType" : 5126,
            "count" : 128,
            "type" : "VEC3"
        },
        {
            "bufferView" : 6,
            "componentType" : 5126,
            "count" : 128,
            "type" : "VEC2"
        },
        {
            "bufferView" : 7,
            "componentType" : 5126,
            "count" : 559,
            "max" : [
                2.5556695461273193,
                1,
                3.0565690994262695
            ],
            "min" : [
                -2.6204633712768555,
                -1,
                -3.0836691856384277
            ],
            "type" : "VEC3"
        },
        {
            "bufferView" : 8,
            "componentType" : 5126,
            "count" : 559,
            "type" : "VEC3"
        },
        {
            "bufferView" : 9,
            "componentType" : 5126,
            "count" : 559,
            "type" : "VEC2"
        },
        {
            "bufferView" : 10,
            "componentType" : 5123,
            "count" : 2880,
            "type" : "SCALAR"
        },
        {
            "bufferView" : 11,
            "componentType" : 5126,
            "count" : 637,
            "max" : [
                1.25,
                0.25,
                1.25
            ],
            "min" : [
                -1.25,
                -0.25,
                -1.25
            ],
            "type" : "VEC3"
        },
        {
            "bufferView" : 12,
            "componentType" : 5126,
            "count" : 637,
            "type" : "VEC3"
        },
        {
            "bufferView" : 13,
            "componentType" : 5126,
            "count" : 637,
            "type" : "VEC2"
        },
        {
            "bufferView" : 14,
            "componentType" : 5123,
            "count" : 3456,
            "type" : "SCALAR"
        },
        {
            "bufferView" : 15,
            "componentType" : 5126,
            "count" : 637,
            "max" : [
                1.25,
                0.25,
                1.25
            ],
            "min" : [
                -1.25,
                -0.25,
                -1.25
            ],
            "type" : "VEC3"
        },
        {
            "bufferView" : 16,
            "componentType" : 5126,
            "count" : 637,
            "type" : "VEC3"
        },
        {
            "bufferView" : 17,
            "componentType" : 5126,
            "count" : 637,
            "type" : "VEC2"
        }
    ],
    "bufferViews" : [
        {
            "buffer" : 0,
            "byteLength" : 1536,
            "byteOffset" : 0
        },
        {
            "buffer" : 0,
            "byteLength" : 1536,
            "byteOffset" : 1536
        },
        {
            "buffer" : 0,
            "byteLength" : 1024,
            "byteOffset" : 3072
        },
        {
            "buffer" : 0,
            "byteLength" : 372,
            "byteOffset" : 4096
        },
        {
            "buffer" : 0,
            "byteLength" : 1536,
            "byteOffset" : 4468
        },
        {
            "buffer" : 0,
            "byteLength" : 1536,
            "byteOffset" : 6004
        },
        {
            "buffer" : 0,
            "byteLength" : 1024,
            "byteOffset" : 7540
        },
        {
            "buffer" : 0,
            "byteLength" : 6708,
            "byteOffset" : 8564
        },
        {
            "buffer" : 0,
            "byteLength" : 6708,
            "byteOffset" : 15272
        },
        {
            "buffer" : 0,
            "byteLength" : 4472,
            "byteOffset" : 21980
        },
        {
            "buffer" : 0,
            "byteLength" : 5760,
            "byteOffset" : 26452
        },
        {
            "buffer" : 0,
            "byteLength" : 7644,
            "byteOffset" : 32212
        },
        {
            "buffer" : 0,
            "byteLength" : 7644,
            "byteOffset" : 39856
        },
        {
            "buffer" : 0,
            "byteLength" : 5096,
            "byteOffset" : 47500
        },
        {
            "buffer" : 0,
            "byteLength" : 6912,
            "byteOffset" : 52596
        },
        {
            "buffer" : 0,
            "byteLength" : 7644,
            "byteOffset" : 59508
        },
        {
            "buffer" : 0,
            "byteLength" : 7644,
            "byteOffset" : 67152
        },
        {
            "buffer" : 0,
            "byteLength" : 5096,
            "byteOffset" : 74796
        }
    ],
    "buffers" : [
        {
            "byteLength" : 79892,
            "uri" : "data:application/octet-stream;base64,"
        }
    ]
}
