{
    "asset" : {
        "generator" : "Khronos glTF Blender I/O v1.0.5",
        "version" : "2.0"
    },
    "scene" : 0,
    "scenes" : [
        {
            "name" : "Scene",
            "nodes" : [
                0,
                1,
                2,
                3,
                4,
                5
            ]
        }
    ],
    "nodes" : [
        {
            "name" : "Light",
            "rotation" : [
                0.16907575726509094,
                0.7558803558349609,
                -0.27217137813568115,
                0.570947527885437
            ],
            "translation" : [
                4.076245307922363,
                5.903861999511719,
                -1.0054539442062378
            ]
        },
        {
            "name" : "Camera",
            "rotation" : [
                0.483536034822464,
                0.33687159419059753,
                -0.20870360732078552,
                0.7804827094078064
            ],
            "translation" : [
                7.358891487121582,
                4.958309173583984,
                6.925790786743164
            ]
        },
        {
            "mesh" : 0,
            "name" : "Sphere",
            "scale" : [
                1.218732237815857,
                1.218732237815857,
                1.218732237815857
            ],
            "translation" : [
                0.06542937457561493,
                0.031210731714963913,
                0.49036315083503723
            ]
        },
        {
            "name" : "Mball",
            "scale" : [
                0.2749773859977722,
                0.2749773859977722,
                0.2749773859977722
            ],
            "translation" : [
                1.1187257766723633,
                -0.26844388246536255,
                0.34240883588790894
            ]
        },
        {
            "name" : "Mball.001",
            "scale" : [
                0.2749773859977722,
                0.2749773859977722,
                0.2749773859977722
            ],
            "translation" : [
                0.6113101840019226,
                -0.29116883873939514,
                1.351231336593628
            ]
        },
        {
            "mesh" : 1,
            "name" : "Cone",
            "scale" : [
                0.36723315715789795,
                0.36723315715789795,
                0.36723315715789795
            ],
            "translation" : [
                0.9710712432861328,
                0.3838053047657013,
                0.9627718329429626
            ]
        }
    ],
    "materials" : [
        {
            "doubleSided" : true,
            "name" : "Material.001",
            "pbrMetallicRoughness" : {
                "baseColorFactor" : [
                    0.29546111822128296,
                    0.8000000715255737,
                    0.14407163858413696,
                    1
                ],
                "metallicFactor" : 0,
                "roughnessFactor" : 0.5
            }
        },
        {
            "doubleSided" : true,
            "name" : "Material.003",
            "pbrMetallicRoughness" : {
                "baseColorFactor" : [
                    0.8000000715255737,
                    0.33266985416412354,
                    0.020694594830274582,
                    1
                ],
                "metallicFactor" : 0,
                "roughnessFactor" : 0.5
            }
        }
    ],
    "meshes" : [
        {
            "name" : "Sphere",
            "primitives" : [
                {
                    "attributes" : {
                        "POSITION" : 0,
                        "NORMAL" : 1,
                        "TEXCOORD_0" : 2
                    },
                    "indices" : 3,
                    "material" : 0
                }
            ]
        },
        {
            "name" : "Cone.001",
            "primitives" : [
                {
                    "attributes" : {
                        "POSITION" : 4,
                        "NORMAL" : 5,
                        "TEXCOORD_0" : 6
                    },
                    "indices" : 7,
                    "material" : 1
                }
            ]
        }
    ],
    "accessors" : [
        {
            "bufferView" : 0,
            "componentType" : 5126,
            "count" : 1111,
            "max" : [
                1.401363492012024,
                1.0128889083862305,
                1.2654988765716553
            ],
            "min" : [
                -1.4632651805877686,
                -1.4647985696792603,
                -1.2150728702545166
            ],
            "type" : "VEC3"
        },
        {
            "bufferView" : 1,
            "componentType" : 5126,
            "count" : 1111,
            "type" : "VEC3"
        },
        {
            "bufferView" : 2,
            "componentType" : 5126,
            "count" : 1111,
            "type" : "VEC2"
        },
        {
            "bufferView" : 3,
            "componentType" : 5123,
            "count" : 5616,
            "type" : "SCALAR"
        },
        {
            "bufferView" : 4,
            "componentType" : 5126,
            "count" : 128,
            "max" : [
                1.847059965133667,
                1,
                1.8602914810180664
            ],
            "min" : [
                -1.8963146209716797,
                -1.8154222965240479,
                -0.9869858026504517
            ],
            "type" : "VEC3"
        },
        {
            "bufferView" : 5,
            "componentType" : 5126,
            "count" : 128,
            "type" : "VEC3"
        },
        {
            "bufferView" : 6,
            "componentType" : 5126,
            "count" : 128,
            "type" : "VEC2"
        },
        {
            "bufferView" : 7,
            "componentType" : 5123,
            "count" : 186,
            "type" : "SCALAR"
        }
    ],
    "bufferViews" : [
        {
            "buffer" : 0,
            "byteLength" : 13332,
            "byteOffset" : 0
        },
        {
            "buffer" : 0,
            "byteLength" : 13332,
            "byteOffset" : 13332
        },
        {
            "buffer" : 0,
            "byteLength" : 8888,
            "byteOffset" : 26664
        },
        {
            "buffer" : 0,
            "byteLength" : 11232,
            "byteOffset" : 35552
        },
        {
            "buffer" : 0,
            "byteLength" : 1536,
            "byteOffset" : 46784
        },
        {
            "buffer" : 0,
            "byteLength" : 1536,
            "byteOffset" : 48320
        },
        {
            "buffer" : 0,
            "byteLength" : 1024,
            "byteOffset" : 49856
        },
        {
            "buffer" : 0,
            "byteLength" : 372,
            "byteOffset" : 50880
        }
    ],
    "buffers" : [
        {
            "byteLength" : 51252,
            "uri" : "data:application/octet-stream;base64,"
        }
    ]
}
